<svg width="72" height="70" viewBox="0 0 72 70" fill="none" xmlns="http://www.w3.org/2000/svg">
<path d="M60.1853 54.5344C63.4165 50.7546 65.6639 46.2738 66.7373 41.471C67.8106 36.6682 67.6784 31.6848 66.3518 26.9422C65.0252 22.1996 62.5431 17.8374 59.1157 14.2246C55.6883 10.6118 51.4163 7.85478 46.6611 6.18665C41.9059 4.51853 36.8074 3.98842 31.7969 4.64117C26.7864 5.29392 22.0113 7.11033 17.8756 9.93673C13.7399 12.7631 10.3652 16.5164 8.03698 20.879C5.70878 25.2416 4.49558 30.0852 4.50001 35C4.50171 42.1448 7.09144 49.0608 11.8148 54.5344L11.7698 54.5716C11.9273 54.7553 12.1073 54.9128 12.2693 55.0944C12.4718 55.3197 12.69 55.5319 12.8993 55.7506C13.5293 56.4156 14.1773 57.0544 14.8568 57.6538C15.0638 57.8375 15.2775 58.0081 15.4868 58.1831C16.2068 58.7869 16.947 59.36 17.7143 59.8937C17.8133 59.9594 17.9033 60.0447 18.0023 60.1125V60.0863C23.272 63.6916 29.5585 65.6266 36.0023 65.6266C42.446 65.6266 48.7325 63.6916 54.0023 60.0863V60.1125C54.1013 60.0447 54.189 59.9594 54.2903 59.8937C55.0553 59.3578 55.7978 58.7869 56.5178 58.1831C56.727 58.0081 56.9408 57.8353 57.1478 57.6538C57.8273 57.0522 58.4753 56.4156 59.1053 55.7506C59.3145 55.5319 59.5305 55.3197 59.7353 55.0944C59.895 54.9128 60.0773 54.7553 60.2348 54.5694L60.1853 54.5344ZM36 17.5C38.0025 17.5 39.9601 18.0773 41.6252 19.159C43.2902 20.2406 44.588 21.778 45.3543 23.5767C46.1206 25.3754 46.3211 27.3547 45.9305 29.2642C45.5398 31.1737 44.5755 32.9277 43.1595 34.3043C41.7435 35.681 39.9394 36.6185 37.9753 36.9984C36.0112 37.3782 33.9754 37.1832 32.1253 36.4382C30.2752 35.6931 28.6939 34.4314 27.5814 32.8126C26.4688 31.1938 25.875 29.2907 25.875 27.3437C25.875 24.733 26.9418 22.2292 28.8406 20.3832C30.7394 18.5371 33.3147 17.5 36 17.5V17.5ZM18.0158 54.5344C18.0548 51.6621 19.2554 48.9203 21.3578 46.902C23.4602 44.8838 26.2954 43.7515 29.25 43.75H42.75C45.7046 43.7515 48.5398 44.8838 50.6422 46.902C52.7446 48.9203 53.9452 51.6621 53.9843 54.5344C49.0497 58.8576 42.6426 61.2502 36 61.2502C29.3574 61.2502 22.9504 58.8576 18.0158 54.5344V54.5344Z" fill="white"/>
</svg>
